<?xml version="1.0" encoding="UTF-8"?>
<svg width="183px" height="95px" viewBox="0 0 183 95" version="1.1" xmlns="http://www.w3.org/2000/svg" xmlns:xlink="http://www.w3.org/1999/xlink">
    <title>arrow-down-red</title>
    <g id="arrow-down-red" stroke="none" fill="none" fill-rule="evenodd" stroke-width="1">
        <g id="Group" transform="translate(0, 0)" fill="#FF4E4E">
            <path d="M173.808568,9.73382983 C155.859352,28.4155149 116.418225,69.2546594 99.4138055,86.7631897 C94.4336672,91.8909686 88.1757063,91.7689856 83.1945114,86.6150109 C66.0286514,68.8537288 26.3116043,27.5677464 8.69012776,9.16903484 C8.34323955,8.80684636 7.15384363,5.40595474 8.29655896,3.85150792 C9.3390756,2.43336237 12.6881203,2.829989 13.0852051,2.91845416 C21.426282,4.77673452 33.0456586,7.37782223 45.8251031,10.2496818 L91.451118,20.5029854 L137.002981,10.2514915 C148.863397,7.58229421 159.725393,5.14280555 167.889225,3.31373085 C168.409805,3.197097 173.544847,2.28795701 174.928393,3.85150792 C176.345361,5.45282807 174.002952,9.53151314 173.808568,9.73382983 Z" id="Path"></path>
        </g>
    </g>
</svg>